<svg width="64" height="64" viewBox="0 0 64 64" fill="none" xmlns="http://www.w3.org/2000/svg">
  <!-- Soft green background circle matching Odoo portal icon style -->
  <circle cx="32" cy="32" r="30" fill="#C3EFDB"/>
  <!-- WhatsApp speech-bubble shape -->
  <path fill="#25D366" d="M32 17C23.716 17 17 23.716 17 32C17 34.496 17.627 36.845 18.727 38.898L17 47L25.288 45.311C27.29 46.368 29.574 47 32 47C40.284 47 47 40.284 47 32C47 23.716 40.284 17 32 17Z"/>
  <!-- Phone handset icon inside bubble (white) -->
  <path fill="white" d="M38.78 35.648C38.513 36.406 37.424 37.026 36.776 37.143C36.194 37.246 35.45 37.29 34.633 37.028C34.14 36.87 33.506 36.657 32.694 36.3C29.408 34.866 27.236 31.527 27.069 31.295C26.903 31.063 25.74 29.479 25.74 27.835C25.74 26.192 26.673 25.386 27.015 25.018C27.356 24.649 27.762 24.576 28 24.576C28.238 24.576 28.476 24.579 28.686 24.589C28.906 24.6 29.199 24.487 29.487 25.19C29.784 25.908 30.493 27.602 30.597 27.81C30.7 28.018 30.765 28.261 30.624 28.524C30.483 28.787 30.421 28.963 30.231 29.19C30.042 29.418 29.832 29.697 29.66 29.869C29.47 30.059 29.273 30.265 29.485 30.659C29.698 31.053 30.461 32.29 31.557 33.27C32.94 34.503 34.111 34.929 34.526 35.123C34.941 35.316 35.171 35.277 35.4 35.02C35.629 34.763 36.365 33.908 36.621 33.473C36.878 33.037 37.136 33.113 37.487 33.238C37.838 33.362 39.424 34.158 39.803 34.353C40.183 34.547 40.44 34.645 40.527 34.8C40.614 34.954 40.614 35.735 40.38 36.493L38.78 35.648Z"/>
</svg>
